<?xml version="1.0" encoding="utf-8"?>
<!-- Generator: Adobe Illustrator 22.0.1, SVG Export Plug-In . SVG Version: 6.00 Build 0)  -->
<svg version="1.1" id="Layer_1" xmlns="http://www.w3.org/2000/svg" xmlns:xlink="http://www.w3.org/1999/xlink" x="0px" y="0px"
	 viewBox="0 0 410.3 504" style="enable-background:new 0 0 410.3 504;" xml:space="preserve">
<style type="text/css">
	.st0{fill:url(#SVGID_1_);}
	.st1{fill:#FFFFFF;}
	.st2{fill:url(#SVGID_2_);}
	.st3{fill:url(#SVGID_3_);}
</style>
<linearGradient id="SVGID_1_" gradientUnits="userSpaceOnUse" x1="59.7108" y1="161.6646" x2="442.7658" y2="161.6646">
	<stop  offset="0" style="stop-color:#283895"/>
	<stop  offset="9.481966e-03" style="stop-color:#2E3892"/>
	<stop  offset="0.1256" style="stop-color:#643980"/>
	<stop  offset="0.2453" style="stop-color:#883B70"/>
	<stop  offset="0.3657" style="stop-color:#A53C62"/>
	<stop  offset="0.4873" style="stop-color:#BE3D56"/>
	<stop  offset="0.6103" style="stop-color:#D13D4B"/>
	<stop  offset="0.7353" style="stop-color:#DE3E41"/>
	<stop  offset="0.8635" style="stop-color:#E63E3C"/>
	<stop  offset="1" style="stop-color:#E93E3A"/>
</linearGradient>
<path class="st0" d="M265.5,148.7c-6.4,0-11.6-5.2-11.6-11.6V11.6c0-6.4-5.2-11.6-11.6-11.6h-76.3c-6.4,0-11.6,5.2-11.6,11.6v125.5
	c0,6.4-5.2,11.6-11.6,11.6H66.7c-6.4,0-11.6,5.2-11.6,11.6v151.5c0,6.4,5.2,11.6,11.6,11.6h76.3c6.4,0,11.6-5.2,11.6-11.6v-84.6
	c0-6.4,5.2-11.6,11.6-11.6h76.3c6.4,0,11.6,5.2,11.6,11.6v84.6c0,6.4,5.2,11.6,11.6,11.6h76.3c6.4,0,11.6-5.2,11.6-11.6V160.2
	c0-6.4-5.2-11.6-11.6-11.6H265.5z"/>
<g>
	<path d="M176.7,499.1c0,1.3-0.3,2.4-1,3.2c-0.6,0.9-1.5,1.4-2.5,1.5l-22.9,0.1c-1.3,0-2.3-0.6-3.2-1.7l-46.6-73.5l-18,24.3
		c-0.3,0.8-0.9,1.4-1.7,1.8c-0.8,0.4-1.7,0.6-2.6,0.6H60c-1.5,0-2.7-0.4-3.6-1.3c-0.9-0.9-1.3-2.1-1.3-3.6V373
		c0-1.4,0.5-2.6,1.4-3.6c0.9-0.9,2.1-1.4,3.6-1.4h18.2c1.4,0,2.5,0.5,3.5,1.5c1,1,1.5,2.1,1.5,3.5v33.7l28.1-35.8
		c1.5-2,4.1-2.8,7.6-2.5l19.6,0.1h-0.1c1.9,0.3,2.8,1.3,2.8,3.2c0,1.3-0.5,2.6-1.5,4.1l-21.6,29.4l57.8,91.2
		C176.4,497.2,176.7,498.1,176.7,499.1z"/>
	<path d="M170,414.6l-0.1-44.3c0-2.5,1.4-3.8,4.3-3.8h16.7c1.7,0,3,0.3,3.9,1c0.9,0.7,1.4,1.6,1.4,2.8l0.5,41.5
		c0.1,5.5,1.6,9.9,4.5,13c2.9,3.2,6.9,4.8,11.9,4.8c9.8,0,14.8-5.6,14.8-16.8l0.3-42.3c0-1.1,0.5-2.1,1.6-2.9
		c1.1-0.8,2.3-1.2,3.8-1.2h16.9c1.6,0,2.9,0.4,3.8,1.1c0.9,0.7,1.3,1.7,1.2,3v18.8c0,11.7,0,19,0.1,21.9c0,2.9,0.1,4.4,0.1,4.6
		c0.1,6.9-1.1,13.4-3.5,19.5c-2.4,6.2-6.8,11.3-13.1,15.4c-6.3,4.1-14.8,6.2-25.5,6.2c-9.8,0-17.9-2-24.4-6
		c-6.5-4-11.3-9.2-14.4-15.6C171.6,429,170,422.1,170,414.6z"/>
	<path d="M290.9,455.5c-1.4,0-2.7-0.5-3.8-1.6c-1.1-1.1-1.6-2.4-1.6-4v-79c0-1.6,0.5-3,1.6-4.1c1.1-1.1,2.3-1.7,3.8-1.7h17.2
		c1.4,0,2.7,0.6,3.8,1.7c1.1,1.1,1.6,2.5,1.6,4.1V429h35c1.6,0,3,0.5,4.1,1.5c1.1,1,1.7,2.3,1.7,3.8v16c0,1.4-0.6,2.7-1.7,3.7
		c-1.1,1-2.5,1.5-4.1,1.5h-54.2L290.9,455.5z"/>
</g>
<g>
	<g>
		<path class="st1" d="M48.2,30.3c-5.6,0-14-2-22.4-5.3c-6.8-2.7-13-5.9-17.3-9.1c-5.2-3.8-7.2-7.2-6.1-10c0.9-2.2,3.5-3.4,7.8-3.4
			c5.6,0,14,2,22.4,5.3c12.9,5,25.7,13.2,23.4,19.1C55.1,29.1,52.4,30.3,48.2,30.3z"/>
		<linearGradient id="SVGID_2_" gradientUnits="userSpaceOnUse" x1="59.7108" y1="16.4234" x2="442.7658" y2="16.4234">
			<stop  offset="0" style="stop-color:#283895"/>
			<stop  offset="9.481966e-03" style="stop-color:#2E3892"/>
			<stop  offset="0.1256" style="stop-color:#643980"/>
			<stop  offset="0.2453" style="stop-color:#883B70"/>
			<stop  offset="0.3657" style="stop-color:#A53C62"/>
			<stop  offset="0.4873" style="stop-color:#BE3D56"/>
			<stop  offset="0.6103" style="stop-color:#D13D4B"/>
			<stop  offset="0.7353" style="stop-color:#DE3E41"/>
			<stop  offset="0.8635" style="stop-color:#E63E3C"/>
			<stop  offset="1" style="stop-color:#E93E3A"/>
		</linearGradient>
		<path class="st2" d="M10.1,4.6c5.2,0,13.1,1.8,21.7,5.1C45.5,15.1,55.5,22.5,54,26.2c-0.6,1.4-2.7,2.1-5.9,2.1
			c-5.2,0-13.1-1.8-21.7-5.1C12.8,17.7,2.8,10.4,4.2,6.7C4.8,5.3,6.9,4.6,10.1,4.6 M10.1,0.5L10.1,0.5c-5.2,0-8.4,1.6-9.7,4.7
			C-1,9,1.3,13.1,7.3,17.6c4.5,3.3,10.8,6.6,17.8,9.4c8.8,3.4,17.2,5.4,23.1,5.4c5.2,0,8.4-1.6,9.7-4.7c1.5-3.8-0.8-7.9-6.8-12.4
			C46.5,12,40.2,8.6,33.2,5.9C24.5,2.5,16,0.5,10.1,0.5L10.1,0.5z"/>
	</g>
	<g>
		<path class="st1" d="M255.6,298.2c-0.3,0-0.5,0-0.8,0c-2.5-0.1-4.8-2.7-9.5-8c-1.5-1.8-3.3-3.7-5.1-5.7
			c-6.3-6.7-16.3-11.4-25.2-15c-5.9-2.4-11.8-5.4-16.6-7.9c-3.4-1.7-6.3-3.2-7.4-3.5c-0.5-0.1-0.9-0.2-1.3-0.2
			c-0.5,0-0.7,0.1-0.9,0.3c-0.3,0.2-0.7,0.4-1.2,0.5l-0.1,0h-0.1c-2.6,0-18-19.6-18.2-19.8c-7.3-9.4-13.1-20-20-36.8
			c-3.5-8.5-6.4-17.7-8.8-25.1c-1.8-5.7-3.4-10.6-4.7-13.5c-0.6-1.4-1.4-3-2.2-4.8c-2.9-6.3-6.5-14.2-7.7-19.2
			c-1-3.9-4.2-12.2-6.8-18.9c-1.3-3.5-2.5-6.5-3.2-8.4c-1.5-4.3-4.4-6.5-9.6-10.5c-1-0.8-2.1-1.6-3.3-2.6C94.3,92.2,88.6,84.3,87,82
			c-1.5-2.2-3-9.4-4.9-18.5c-0.6-2.9-1.2-6.1-1.5-6.7c-0.2-0.5-0.7-1-1.4-1.5c-0.7-0.6-1.4-1.2-2-2.1c-0.6-1-0.9-1.9-1.2-2.8
			c-0.2-0.7-0.4-1.4-0.8-1.8c-0.1-0.1-0.2-0.3-0.3-0.4c-0.6-0.7-1.3-1.6-1.5-2.9c-0.1-0.7,0-2.3,0.9-3.4c0.5-0.6,1.3-0.9,2-0.9
			c0.4,0,0.8,0.1,1.1,0.2c1.5,0.7,2.3,1.5,2.9,2.7c-0.1-0.2-0.2-0.5-0.3-0.8l-0.1-0.3c-0.1-0.3-0.2-0.6-0.2-1c0-0.1,0-0.1,0-0.2
			c-0.3-0.2-1-0.5-1.3-0.7c-0.3-0.2-0.6-0.3-0.8-0.4c-0.1-0.1-0.3-0.2-0.5-0.3c-1.3-0.6-3.5-1.6-3.5-3.8c0-0.8,0.2-1.4,0.7-1.9
			c0.5-0.5,1.2-0.8,1.9-0.8c0,0,0.1,0,0.1,0c-0.9-0.7-1.6-1.7-1.7-2.9c0-0.6,0.1-1.6,1.3-2.4c0.3-0.2,0.5-0.3,0.9-0.4
			c0.1-0.4,0.2-0.8,0.5-1.2c0.5-0.8,1.4-1.3,2.3-1.3c0.2,0,0.3,0,0.5,0c0.4-0.2,0.9-0.4,1.3-0.4c0.7,0,1.4,0.3,2,0.9
			c0.4,0.5,0.8,0.9,1.2,1.4c0.7,0.8,1.4,1.6,2.1,2.3c0.7,0.6,1,1.2,1.2,1.6l0.2,0.3c0.1,0.1,0.2,0.2,0.3,0.3c0.3,0.4,0.7,0.9,1,1.7
			c0.4,1.4,0.6,2.9,0.7,4.3l0.1,0.9c0.1,0.6,0.2,1.2,0.3,1.7c0.2,1.1,0.4,2.3,0.4,3.6c0,1.7,0,3.3,0,5c0,0.9,0.2,2,0.5,3
			c0.1,0.5,0.2,1,0.3,1.4c0.3,1.4,0.7,2.5,1.2,3.8c0.2,0.5,0.4,1,0.6,1.6c0.5,1.1,1.1,2.5,1.5,3.6c2.4,5.9,7.8,13.3,11.6,17.2
			c3.3,3.3,7.9,5.4,12.8,7.6c1.1,0.5,2.2,1,3.3,1.5c3.5,1.7,7.4,4.7,10.4,7.2c1.5,1.2,3.3,2.7,4.2,3.1c0.5-0.4,1.1-1.4,1.2-1.9
			c0-0.3,0-0.9,0-1.4c-2.3-1.4-4.8-3.1-5.5-4.2c-1.1-1.8-0.4-4.7,0-5.8l0.3-0.8l0.3-0.2l-0.4-0.7l0.9-1.1c0.4-0.5,0.9-1.3,1-1.5
			c0,0-0.2-0.3-0.3-0.4l-0.3-0.4c-1.6-2.5,1.7-4.8,3.5-6.1c0,0,0.1-0.5,0.3-0.8c0.7-1.8,1.9-4.9,6.6-7.9c2.9-1.9,5.5-3.2,8.4-3.2
			c3.4,0,7,1.7,12.5,5.7c2.9,2.1,4.4,5,4.6,8.5c0.3,7.7-6.6,16-9.2,18.2c-2.4,2-2.4,4.1-2.1,5c0.9,0.6,4.6,1.4,8,1.4
			c0.3,0,0.7,0,0.9,0c2.5-0.2,10.2-0.3,14.8-0.3c1.5,0,2.7,0,3.1,0l0,0c2.1,0,14.6-1.4,18.3-2.2c2.8-0.6,5.6-3.1,7.3-5.2
			c0.8-1.1,4.4-9.4,5.9-14.2l0.8-2.6c0.2-1.1,0.4-1.8,0.6-2.2c0,0,0,0,0-0.1c-0.5-0.6-1.2-1.5-2.1-3c-1.3-2-1.5-2.4-1.6-2.7
			c-0.1-0.3-0.2-0.8-0.3-1.6c0-0.8,0-1.2,0-1.5c-0.1-0.2-0.3-0.8-0.7-1.8c-0.5-1.4-0.8-1.9-0.9-2.1c-0.4-0.6-0.6-1.1-0.7-1.7
			c-0.1-0.8,0.2-1.5,0.8-2.1c0.6-0.5,1.3-0.7,2-0.7c0,0,0,0,0,0c0.6,0,1.1,0.1,1.7,0.3c0.5,0.2,1,0.4,1.4,0.8
			c0.4,0.3,0.8,0.7,1.2,1.1c0.4,0.4,0.8,1.1,1.3,2.1c0.1-0.2,0.2-0.4,0.3-0.7c0.2-0.5,0.3-1,0.4-1.4c0-0.6,0.2-1.6,0.5-3
			c0.2-1.3,0.5-2.4,0.7-3.3c0.3-1,0.5-1.8,0.8-2.3c0.3-0.7,0.6-1.2,1-1.6c0.4-0.4,0.9-0.8,1.6-0.9c0.3-0.1,0.6-0.1,0.9-0.1
			c0.5,0,0.9,0.1,1.3,0.3c0.3-0.2,0.6-0.4,1-0.5l0.3-0.1l0.4,0c0.3,0,0.6,0,1,0.1c1.3,0.3,1.7,1,2.1,1.8l0.1,0.2l0,0.3
			c0,0.1,0,0.2,0,0.3c0,0,0.1,0,0.1,0c0.2,0,0.5,0,0.7,0.1c0.6,0.2,1.1,0.4,1.4,0.7c0.5,0.5,0.8,1.1,1,1.7c0.1,0.3,0.1,0.8-0.1,1.5
			c0,0.1,0,0.2-0.2,0.6c0.5,0.1,1,0.4,1.5,0.8c0.8,0.8,0.9,1.5,0.9,2c0,0.4-0.1,0.9-0.3,1.6c-0.1,0.4-0.4,1.1-1.5,3.6
			c-0.9,2.1-1.3,3.1-1.4,3.5c-0.2,0.9-0.5,1.9-0.9,3c-0.4,1.1-0.8,2-1.1,2.7c-0.4,0.7-0.9,1.5-1.5,2.4c-0.5,0.7-0.9,1.3-1.2,1.9
			c-0.2,0.4-0.3,0.7-0.4,1.1c-0.1,0.5-0.1,0.9-0.1,1.3l0,0.2l-0.8,6.2l0,0c-0.2,1.8-0.5,3.6-0.8,5.2c-0.8,4-5.1,13.8-5.8,15.2
			c-1.1,2.2-6.1,6.2-9.3,6.6c-1.1,0.1-3.9,1.1-6.6,2c-2.6,0.9-5.5,1.9-8,2.6c-4.6,1.2-11.7,2-15.6,2.3l-1.7,0.2
			c-1.2,0.1-1.9,1.1-2.3,1.5c-0.3,2.7-2.2,17.4-2.6,24c-0.4,6.3,7.4,18.5,9,20.3c0.5,0.5,3.6,2.4,6.4,4c6,3.6,14.2,8.5,18.9,12.6
			c6.7,6,28.3,23,30.6,24.9c1.4,0.6,7.6,3.3,13,6.7c4.2,2.6,16.5,13.5,24.6,20.8c3.5,3.1,6.2,5.5,7.1,6.2c2.3,1.8,3.6,2,4.8,2
			c0.4,0,0.7,0,1.1-0.1l0.3,0c2.1,0,3.7,2.1,6.3,5.6c1.9,2.5,4.3,5.7,6.8,7.7c5.7,4.4,8,7.8,8,12.2c0,1.1-0.4,4.6-5.9,4.6
			c-1.2,0-2.1-0.2-2.3-0.2l-0.5-0.1l-0.4-0.3c0,0-9-7.3-11-8.9c-1.9-1.5-5.7-3.4-6.5-3.6c-1.6-0.3-4.8-3.4-5.7-5.2l0,0
			c-0.7-1.2-8.3-9.3-10.2-11c-1-0.8-6.7-2.5-10.6-3.7c-3.9-1.2-7.7-2.4-9.8-3.3c-4.2-1.9-8.9-6.8-10.5-8.5c-1.8-0.2-6.3-0.6-9.9-0.7
			c-5-0.1-17-2.1-19.9-2.7c-0.6-0.1-1.3-0.4-2-0.7c3,3.1,4.1,4.4,4.3,5.8c0.2,1.7-1,3.7-8.3,10c-0.2,0.2-0.4,0.4-0.6,0.5
			c0,0,0,0.1,0,0.2c0.2,0,0.5,0,0.7,0.1c2.2,0.2,5.9,0.6,9.6,2.7c5.5,3.1,13.7,12,17.6,16.3l0.3,0.4c1.4,1.5,2.4,1.7,3.1,1.7
			c0.7,0,1.6-0.2,2.4-0.5c0.8-0.2,1.6-0.4,2.4-0.5c0.2,0,0.5,0,0.7,0c4,0,7,3.6,7.4,7.1c0.4,3.6,1.6,9,2.4,9.9
			c1.4,1.6,8.9,9.8,9,9.9l0.1,0.1l0.1,0.1c3.4,5,0.9,9.1,0.8,9.2l-0.4,0.6l-0.7,0.2C259.4,297.7,257.9,298.2,255.6,298.2z"/>
		<linearGradient id="SVGID_3_" gradientUnits="userSpaceOnUse" x1="59.7108" y1="161.6646" x2="442.7658" y2="161.6646">
			<stop  offset="0" style="stop-color:#283895"/>
			<stop  offset="9.481966e-03" style="stop-color:#2E3892"/>
			<stop  offset="0.1256" style="stop-color:#643980"/>
			<stop  offset="0.2453" style="stop-color:#883B70"/>
			<stop  offset="0.3657" style="stop-color:#A53C62"/>
			<stop  offset="0.4873" style="stop-color:#BE3D56"/>
			<stop  offset="0.6103" style="stop-color:#D13D4B"/>
			<stop  offset="0.7353" style="stop-color:#DE3E41"/>
			<stop  offset="0.8635" style="stop-color:#E63E3C"/>
			<stop  offset="1" style="stop-color:#E93E3A"/>
		</linearGradient>
		<path class="st3" d="M81.4,27.2c0.1,0,0.3,0.1,0.5,0.2c1.2,1.3,2.1,2.6,3.4,3.8c0.6,0.5,0.7,0.9,1.1,1.5c0.4,0.6,0.8,0.9,1,1.6
			c0.5,1.6,0.6,3.3,0.7,4.9c0.2,1.8,0.6,3.3,0.6,5.1c0,1.7,0,3.3,0,5c0,1.6,0.5,3.3,0.8,4.9c0.4,2.1,1.1,3.7,1.8,5.7
			c0.5,1.2,1.1,2.6,1.6,3.7c2.4,5.9,7.8,13.5,12.1,17.9c4.3,4.4,10.4,6.6,16.7,9.6c6.2,2.9,13.7,10.6,15.5,10.6c0,0,0.1,0,0.1,0
			c1.7-0.3,3-2.9,3.1-3.8c0.1-0.9-0.1-2.9-0.1-2.9s-5-2.9-5.8-4.1c-0.7-1.1,0.2-4.1,0.2-4.1l1.4-0.8l-0.7-1.3c0,0,1.3-1.5,1.4-2.5
			c0.2-1-0.4-1.6-0.9-2.3c-0.5-0.8,1.6-2.3,3-3.3c1.4-1,0.7-4.7,6.8-8.7c2.7-1.8,4.9-2.8,7.3-2.8c2.9,0,6.2,1.6,11.3,5.3
			c9.3,6.9-1.4,20.7-4.7,23.5c-3.3,2.8-3.4,6.2-2.5,7.7c0.8,1.4,6.2,2.3,9.7,2.3c0.4,0,0.8,0,1.1,0c2.5-0.2,10.2-0.3,14.6-0.3
			c1.5,0,2.6,0,3,0c0,0,0.1,0,0.2,0c2.2,0,14.8-1.4,18.6-2.3c4-0.9,7.2-4.3,8.5-6c1.1-1.4,4.9-10.6,6.4-15l0,0l0.5-1.6l0,0l0.3-1
			c0.3-1.6,0.7-2.2,0.7-2.7c0-0.5-0.2-0.9-0.7-1.4c-0.4-0.5-1.1-1.4-1.9-2.7c-0.8-1.3-1.3-2.1-1.3-2.2c-0.1-0.2-0.1-0.6-0.2-1.1
			c0-0.5,0-0.9,0-1.1c0-0.2,0-0.4,0-0.7c-0.1-0.3-0.3-1-0.8-2.2c-0.5-1.2-0.8-2-1.1-2.4c-0.3-0.4-0.4-0.7-0.4-0.8
			c0-0.1,0-0.2,0.2-0.4c0.1-0.1,0.4-0.2,0.7-0.2c0,0,0,0,0.1,0c0.3,0,0.6,0.1,0.9,0.2c0.3,0.1,0.6,0.3,0.9,0.5
			c0.3,0.2,0.6,0.5,0.9,0.8c0.3,0.3,0.7,1,1.2,2.1c0.5,1.1,0.8,1.7,1,1.8c0.1,0.2,0.3,0.3,0.4,0.3c0,0,0,0,0,0
			c0.1,0,0.3-0.1,0.6-0.4c0.3-0.3,0.6-0.7,0.9-1.2c0.3-0.5,0.6-1.1,0.9-1.8c0.3-0.7,0.4-1.3,0.5-1.9c0-0.6,0.2-1.5,0.4-2.8
			c0.2-1.2,0.5-2.3,0.7-3.2c0.2-0.9,0.5-1.6,0.7-2c0.2-0.5,0.4-0.8,0.6-1c0.2-0.2,0.4-0.3,0.7-0.4c0.1,0,0.2,0,0.3,0
			c0.1,0,0.3,0,0.4,0.1c0.2,0.1,0.4,0.3,0.4,0.5c0.1,0.2,0.1,0.5,0,1c-0.1,0.5-0.2,1.3-0.5,2.6c-0.3,1.3-0.5,2.5-0.6,3.6l-0.2,1.6
			c0,0,0,0.1,0.1,0.1c0,0,0,0,0,0c0.1,0,0.1,0,0.1-0.1c0,0,0.3-1.6,0.3-1.6c0.2-1.1,0.5-2.3,0.9-3.7c0.4-1.4,0.7-2.4,0.9-3
			c0.2-0.6,0.4-0.9,0.6-1.1c0.1-0.1,0.3-0.2,0.5-0.3c0,0,0,0,0.1,0c0.1,0,0.3,0,0.5,0.1c0.4,0.1,0.5,0.2,0.7,0.7c0,0,0.1,0.3,0,0.8
			c-0.1,0.5-0.6,2.2-0.6,2.2c-0.4,1.7-0.8,3.3-1.1,4.6c-0.3,1.3-0.4,2.1-0.4,2.2c0,0.3,0,0.4,0.1,0.4c0.1,0,0.2-0.1,0.2-0.2
			c0.1-0.1,0.3-0.9,0.3-0.9c0.2-0.6,0.6-1.7,1.4-3.2c0.7-1.6,1.2-2.5,1.3-2.9c0.1-0.4,0.2-0.6,0.4-0.8c0.1-0.1,0.2-0.2,0.4-0.2
			c0.1,0,0.1,0,0.2,0c0.1,0,0.2,0,0.3,0c0.2,0.1,0.4,0.1,0.5,0.3c0.1,0.1,0.2,0.3,0.3,0.5c0,0,0,0.2-0.1,0.7
			c-0.1,0.5-1.5,3.9-1.5,3.9c-1.1,2.8-1.6,4.4-1.6,4.7c-0.1,0.6,0.1,0.7,0.2,0.7c0.1,0,0.3-0.1,0.3-0.2c0.1-0.1,1.7-3,1.7-3
			c1.1-2,1.7-3,1.9-3.1c0.1,0,0.2-0.1,0.3-0.1c0,0,0,0,0.1,0c0.1,0,0.3,0.1,0.5,0.3c0.2,0.2,0.3,0.4,0.3,0.6c0,0.2-0.1,0.5-0.2,1
			c-0.1,0.4-0.6,1.5-1.4,3.3c-0.8,1.8-1.3,3.1-1.5,4c-0.2,0.9-0.5,1.8-0.8,2.8c-0.4,1-0.7,1.8-1,2.4c-0.3,0.6-0.8,1.3-1.3,2.1
			c-0.6,0.8-1,1.5-1.3,2.1c-0.3,0.6-0.5,1.2-0.6,1.8c-0.1,0.6-0.1,1.1-0.1,1.7l-0.4,3.1l0,0c-0.4,2.8-0.7,5.5-1.1,8
			c-0.7,3.6-4.7,13-5.6,14.7c-0.9,1.7-5.4,5.2-7.8,5.5c-2.4,0.3-9.6,3.3-14.9,4.7c-5.2,1.4-14.3,2.2-17,2.5c-2.7,0.3-4,2.9-4,2.9
			s-2.2,17.2-2.7,24.5c-0.5,7.4,8,20.1,9.5,21.8c1.5,1.7,18.2,10.3,25.4,16.8c7.2,6.5,30.9,25.1,30.9,25.1s7.1,3,12.9,6.6
			c5.8,3.7,28.4,24.3,31.5,26.8c2.5,2,4.3,2.5,6,2.5c0.4,0,0.9,0,1.3-0.1c0,0,0.1,0,0.1,0c2.2,0,6.4,8.6,11.9,12.8
			c5.5,4.2,7.2,7.1,7.2,10.6c0,2.1-2.2,2.5-3.9,2.5c-1,0-1.9-0.2-1.9-0.2s-9-7.4-11-9c-2-1.6-6.1-3.8-7.3-4
			c-1.2-0.3-4.3-3.6-4.3-4.2c-0.1-0.6-8.6-9.8-10.6-11.6c-2-1.8-16.2-5.3-20.9-7.4c-4.7-2.1-10.3-8.6-10.3-8.6s-6.2-0.7-10.8-0.8
			c-4.7-0.1-16.4-2-19.6-2.7c-2.6-0.6-7.5-4.1-8.9-4.1c-0.3,0-0.4,0.1-0.4,0.5c0.2,2,8.9,9.2,9.1,11c0.2,1.8-7.6,8.2-8.3,8.8
			c-0.7,0.7-0.6,2.1-0.3,3.1c0.3,1,5.7,0,11.1,3c5.4,3,13.7,12.2,17.4,16.3c1.7,1.8,3.2,2.3,4.6,2.3c1.8,0,3.4-0.8,5.1-1
			c0.2,0,0.3,0,0.5,0c2.8,0,5.1,2.8,5.4,5.2c0.3,2.6,1.5,9.4,2.9,11c1.4,1.7,9,9.9,9,9.9c2.7,4,0.8,7,0.8,7s-1.3,0.5-3.3,0.5
			c-0.2,0-0.5,0-0.7,0c-2.4-0.1-7-6.5-13.2-13.1c-6.2-6.6-15.5-11.2-25.9-15.5c-10.4-4.3-21.3-10.6-24.2-11.4
			c-0.7-0.2-1.3-0.3-1.8-0.3c-1.5,0-2.1,0.7-2.4,0.8l0,0c-0.4,0-8.7-9-16.5-19c-7.8-10.1-13.6-21.4-19.7-36.3
			c-6.1-14.9-10.5-31.8-13.5-38.6c-3-6.8-8.3-17.5-9.8-23.6c-1.5-6.1-8-21.7-10-27.4c-2-5.7-6.1-8.1-13.5-14
			C97,91.7,91.5,84.9,88.7,80.9c-2.2-3.1-5.3-23-6.1-24.9c-0.8-1.8-2.5-2.4-3.6-4c-1-1.5-0.9-3.3-2.1-4.7c-0.6-0.7-1.3-1.4-1.4-2.4
			c-0.1-0.6,0.1-2,0.9-2c0.1,0,0.2,0,0.3,0.1c1.1,0.5,1.6,1.1,2.1,2.1c0.4,0.8,0.8,2.2,1.8,2.2c0,0,0.1,0,0.1,0
			c1.1-0.1,1.8-2.5,1.7-3.3c0-0.7-0.3-1.3-0.5-2c-0.1-0.4-0.2-1.2-0.4-1.5c-0.5-0.7-2.2-1.4-3-1.9c-0.8-0.5-3-1.2-3.1-2.3
			c0-0.4,0.2-0.6,0.6-0.6c0.8,0,2.3,0.9,2.7,1c1.3,0.5,2.4,1.1,3.7,1.7c0.7-0.7-0.5-1.7-0.8-2.3c-0.6-1-1.1-1.7-2-2.5
			c-0.7-0.6-4.3-2.4-2.7-3.6c0.1,0,0.2-0.1,0.3-0.1c1.1,0,4.1,2.2,4.8,2.6c-0.4-0.6-0.7-1.2-1.2-1.7c-0.5-0.5-1.2-0.8-1.7-1.4
			c-0.3-0.4-0.7-1.1-0.3-1.6c0.2-0.3,0.4-0.4,0.6-0.4c0.3,0,0.7,0.2,1,0.4C80.7,27.5,81,27.2,81.4,27.2 M81.4,23.1L81.4,23.1
			c-0.6,0-1.2,0.1-1.7,0.3c0,0-0.1,0-0.1,0c-1.6,0-3.1,0.8-4,2.2c-0.2,0.3-0.3,0.6-0.5,0.9c-0.1,0.1-0.2,0.2-0.4,0.2
			c-1.4,1-2.1,2.5-2.1,4.1c0,0.7,0.2,1.4,0.5,2c-0.1,0.1-0.2,0.1-0.2,0.2c-0.9,0.9-1.3,2.1-1.3,3.5c0.1,1.6,0.8,2.7,1.7,3.6
			c-0.1,0.1-0.3,0.3-0.4,0.4c-1.3,1.5-1.6,3.6-1.4,5c0.3,1.9,1.3,3.2,2,4c0.1,0.1,0.2,0.2,0.3,0.3c0.1,0.2,0.3,0.7,0.4,1.2
			c0.3,0.9,0.6,2.1,1.4,3.3c0.8,1.2,1.7,1.9,2.4,2.6c0.3,0.2,0.7,0.6,0.8,0.8c0.2,0.8,0.9,3.9,1.3,6.3c2.3,11.5,3.6,17,5.2,19.3
			c1.6,2.3,7.5,10.4,16.5,17.6c1.2,0.9,2.3,1.8,3.3,2.6c5.4,4.2,7.6,6,8.9,9.6c0.7,2,1.9,5,3.2,8.5c2.6,6.6,5.7,14.8,6.7,18.6
			c1.3,5.2,4.8,12.8,7.8,19.5c0.8,1.7,1.5,3.3,2.2,4.8c1.2,2.8,2.8,7.6,4.6,13.3c2.4,7.4,5.3,16.7,8.9,25.2
			c7,16.9,12.8,27.7,20.3,37.2c4.7,6,9,11,11.2,13.5c6.1,6.9,6.7,7.1,8.6,7.1h0.3l0.3,0c0.9-0.1,1.6-0.5,2-0.7c0.1,0,0.3,0,0.6,0.1
			c0.9,0.3,4.1,1.9,7.1,3.4c4.8,2.4,10.8,5.5,16.8,7.9c8.7,3.6,18.4,8.1,24.5,14.5c1.8,1.9,3.6,3.9,5.1,5.7
			c4.7,5.3,7.5,8.5,10.9,8.7c0.3,0,0.6,0,0.9,0c2.6,0,4.4-0.6,4.7-0.7l1.3-0.5l0.7-1.2c1.2-2,2.4-6.6-0.9-11.4l-0.2-0.3l-0.2-0.2
			c-2.1-2.2-7.6-8.2-8.8-9.7c-0.6-1.1-1.6-5.6-2-8.9c-0.5-4.3-4.4-8.9-9.4-8.9h0c-0.3,0-0.6,0-0.9,0.1c-1,0.1-1.9,0.4-2.7,0.6
			c-0.7,0.2-1.4,0.4-1.9,0.4c-0.2,0-0.7,0-1.6-1l-0.3-0.3c-6.4-7-13-13.8-18.1-16.7c-2.4-1.3-4.7-2-6.7-2.4c5.2-4.7,6.6-6.9,6.3-9.4
			c-0.1-0.7-0.3-1.4-0.7-2.1c4.9,0.8,12.6,1.9,16.3,2c3.1,0.1,6.9,0.4,8.9,0.6c2,2.2,6.4,6.5,10.6,8.4c2.2,1,6,2.2,10,3.4
			c3.5,1.1,8.7,2.7,9.9,3.4c1.9,1.8,8.8,9.2,9.7,10.5c0-0.1-0.5-0.7-0.6-1.6c0.3,2.7,4.9,7.1,7.5,7.7c0.9,0.3,4.2,2,5.7,3.2
			c2,1.6,10.9,8.9,11,8.9l0.8,0.7l1,0.2c0.2,0,1.3,0.2,2.6,0.2c5.9,0,8-3.6,8-6.6c0-5-2.5-9.1-8.8-13.8c-2.3-1.8-4.6-4.8-6.4-7.3
			c-2.8-3.7-4.8-6.4-7.9-6.4h-0.2l-0.3,0c-0.3,0-0.6,0.1-0.9,0.1c-0.6,0-1.5,0-3.5-1.6c-0.9-0.7-3.7-3.2-7-6.1
			c-10.8-9.6-20.9-18.4-24.9-21c-5.2-3.3-11.2-6-13-6.7c-3.2-2.5-23.8-18.8-30.3-24.6c-4.8-4.3-13.1-9.3-19.2-12.9
			c-2.5-1.5-5.3-3.1-6-3.7c-2-2.4-8.8-13.4-8.4-18.7c0.4-6.1,2.1-19.5,2.6-23.3c0.2-0.2,0.4-0.3,0.5-0.3c0.4,0,1-0.1,1.7-0.2
			c3.9-0.4,11.2-1.1,15.9-2.4c2.6-0.7,5.5-1.7,8.1-2.6c2.2-0.8,5.3-1.8,6.1-1.9c3.8-0.4,9.4-4.7,10.9-7.7c0.8-1.6,5.2-11.5,6-15.8
			c0.1-0.7,0.2-1.3,0.3-2l0,0l0.8-6.2l0.4-3.1l0-0.4l0-0.4c0-0.2,0-0.5,0-0.8l0-0.1l0-0.1l0,0c0,0,0-0.1,0.1-0.3
			c0.3-0.5,0.6-1.1,1.1-1.7c0.7-0.9,1.2-1.7,1.6-2.5c0.4-0.8,0.8-1.8,1.3-3c0.4-1.2,0.7-2.3,0.9-3.3c0-0.2,0.3-1,1.2-3.1
			c1.1-2.4,1.4-3.3,1.6-3.8c0.3-0.9,0.4-1.6,0.4-2.3c0-0.9-0.3-2.1-1.4-3.3l-0.1-0.1l-0.1-0.1c-0.2-0.2-0.4-0.3-0.6-0.5
			c0-0.4,0-0.9-0.1-1.2c-0.2-1.1-0.7-2-1.5-2.7l-0.1-0.1l-0.1-0.1c-0.5-0.4-1.2-0.8-1.9-1l-0.1,0c-0.5-1-1.4-2.2-3.4-2.7
			c-0.5-0.1-1-0.2-1.5-0.2c-0.4,0-0.7,0-1,0.1l-0.2,0l-0.1,0c-0.2,0.1-0.4,0.1-0.5,0.2c-0.4-0.1-0.8-0.1-1.2-0.1
			c-0.5,0-1,0.1-1.5,0.2c-0.9,0.3-1.8,0.8-2.5,1.5c-0.5,0.6-1,1.3-1.4,2.2c-0.3,0.6-0.6,1.5-0.8,2.6c-0.3,1-0.5,2.2-0.8,3.5
			c0,0.2-0.1,0.5-0.1,0.7c-0.1-0.1-0.2-0.2-0.3-0.2c-0.6-0.4-1.2-0.8-1.9-1c-0.8-0.3-1.6-0.4-2.3-0.4h-0.1l-0.1,0
			c-1.2,0-2.2,0.4-3.1,1.1l-0.1,0.1l-0.1,0.1c-1.1,1-1.6,2.4-1.5,3.8c0.1,1,0.5,1.8,1,2.5c0,0,0.2,0.4,0.8,1.8
			c0.3,0.7,0.4,1.1,0.5,1.3c0,0.4,0,0.8,0,1.4c0.1,1,0.2,1.6,0.4,2.2c0.2,0.6,0.5,1.2,1.8,3.1c0.6,1,1.1,1.7,1.6,2.3
			c-0.1,0.4-0.2,0.8-0.3,1.3l-0.2,0.8l-0.5,1.6l-0.1,0.2c-1.4,4.3-4.7,12.1-5.6,13.5c-1.4,1.8-3.9,4-6.1,4.5
			c-3.5,0.8-15.9,2.2-17.8,2.2c-0.1,0-0.7,0-3.2,0c-4.4,0-12.3,0.1-14.9,0.3c-0.2,0-0.5,0-0.8,0c-2.2,0-4.6-0.4-6-0.8
			c0.1-0.5,0.5-1.3,1.4-2c3.2-2.7,10.2-11.5,9.9-19.8c-0.1-4.1-2-7.6-5.4-10.1c-6-4.4-9.9-6.1-13.8-6.1c-3.4,0-6.3,1.4-9.5,3.5
			c-5.2,3.4-6.6,6.9-7.3,8.9c0,0.1-0.1,0.2-0.1,0.3c-2,1.4-5.8,4.6-3.6,8.3c0,0.1-0.1,0.1-0.1,0.1l-1.9,2.2L131,85l-0.1,0.4
			c-0.5,1.5-1.1,4.1-0.4,6.4c-2.3-1.7-4.7-3.4-7.1-4.5c-1.1-0.5-2.2-1-3.3-1.5c-4.9-2.2-9.2-4.1-12.2-7.2c-3.8-3.9-9-11.1-11.2-16.5
			c-0.5-1.2-1-2.5-1.5-3.7c-0.2-0.5-0.4-1-0.5-1.5c-0.5-1.3-0.9-2.3-1.1-3.5c-0.1-0.5-0.2-1-0.3-1.5c-0.2-0.9-0.4-1.9-0.4-2.6
			c0-1.7,0-3.3,0-5c0-1.5-0.2-2.9-0.4-4c-0.1-0.5-0.2-1.1-0.2-1.6L92,37.8c-0.1-1.4-0.3-3.1-0.8-4.7c-0.4-1.2-1-2-1.4-2.5
			c0-0.1-0.1-0.1-0.1-0.2c0-0.1-0.1-0.1-0.1-0.2c-0.3-0.5-0.7-1.3-1.7-2.1c-0.6-0.6-1.2-1.3-1.9-2.1c-0.4-0.5-0.8-1-1.2-1.4
			C83.9,23.6,82.7,23.1,81.4,23.1L81.4,23.1z"/>
	</g>
</g>
<g>
	<path class="st1" d="M97.5,205.1c-8.1,0-14.7-6.6-14.7-14.7c0-8.1,6.6-14.7,14.8-14.7c8.1,0,14.6,6.6,14.6,14.7
		C112.2,198.5,105.6,205.1,97.5,205.1z"/>
	<path class="st1" d="M101.9,203.8c1.9-0.6,3.6-1.6,5.1-3c1,3.7,2,7.4,3,11.1C107.3,209.3,104.6,206.6,101.9,203.8z"/>
	<path class="st1" d="M85.1,211.9c1-3.7,2-7.4,3-11.1c1.5,1.4,3.2,2.4,5.1,3C90.4,206.5,87.7,209.2,85.1,211.9z"/>
	<path class="st1" d="M119.1,177.9c-2.7,2.7-5.4,5.4-8.1,8.1c-0.6-1.9-1.6-3.6-3-5.1C111.7,179.9,115.4,178.9,119.1,177.9z"/>
	<path class="st1" d="M87.1,180.9c-1.4,1.5-2.4,3.2-3,5.1c-2.7-2.7-5.4-5.4-8.1-8.1C79.6,178.9,83.3,179.9,87.1,180.9z"/>
	<path class="st1" d="M110.9,194.8c2.7,2.7,5.4,5.4,8.1,8.1c-3.7-1-7.4-2-11.1-3C109.3,198.4,110.3,196.7,110.9,194.8z"/>
	<path class="st1" d="M84.1,194.8c0.3,0.9,0.7,1.8,1.2,2.7c0.5,0.9,1.1,1.7,1.8,2.4c-3.7,1-7.4,2-11.1,3
		C78.7,200.2,81.4,197.5,84.1,194.8z"/>
	<path class="st1" d="M85,168.9c2.7,2.7,5.4,5.4,8.1,8.1c-1.9,0.6-3.6,1.6-5.1,3C87,176.2,86,172.5,85,168.9z"/>
	<path class="st1" d="M107,180c-1.5-1.4-3.2-2.4-5.1-3c2.7-2.7,5.4-5.4,8.1-8.1C109,172.5,108,176.2,107,180z"/>
	<path class="st1" d="M100.5,204.2c-1,3.7-2,7.4-3,11.1c0,0,0,0,0,0c-1-3.7-2-7.4-3-11.1C96.5,204.6,98.5,204.6,100.5,204.2z"/>
	<path class="st1" d="M111.3,187.4c3.7,1,7.4,2,11.1,3c0,0,0,0,0,0c-3.7,1-7.4,2-11.1,3C111.7,191.4,111.7,189.4,111.3,187.4z"/>
	<path class="st1" d="M72.6,190.4c3.7-1,7.4-2,11.1-3c-0.2,1-0.3,2-0.3,3c0,1,0.1,2,0.3,3C80,192.4,76.3,191.4,72.6,190.4
		C72.6,190.4,72.6,190.4,72.6,190.4z"/>
	<path class="st1" d="M97.5,165.5c1,3.7,2,7.4,3,11.1c-2-0.4-4-0.4-6,0C95.5,172.9,96.5,169.2,97.5,165.5
		C97.5,165.5,97.5,165.5,97.5,165.5z"/>
</g>
</svg>
